<svg xmlns="http://www.w3.org/2000/svg" viewBox="0 0 800 800" xml:space="preserve"><path fill="#FFF" d="M50 678V62.288h704.711v685.424H50V678m385.5 43h292.213V89.287H77.287V721H435.5z"/><path fill="#FFF" d="M267 140h422.71v91.713H116.29V140H267zm307 444.006v-13.718h115.712v107.425H574v-93.707zM690 376v17.714H574.286V286.286H690v89.713zm-116 83v-30.714h115.714v107.428H574V459zM422 664.994v-93.708h114.714v107.428H422v-13.72zM299 570h84.712v107.712H269.288V570H299zm-68 83v24.714H116.286V570.286H231V653zm191-186v-37.714h114.714v107.428H422V467zm-105 69h-47.714V428.286h114.428V536H317zM120.137 428h110.62v107.76H116v-2.905c0-33.498.014-66.996-.026-100.495-.003-2.641-.286-5.207 4.163-4.36zM495 395h-72.713V287.287h114.426V395H495zm-111-29v27.714H269.286V286.286H384V366zm-268-37v-42.714h114.714v107.428H116V329z"/></svg>